<?xml version="1.0" encoding="UTF-8"?>
<svg width="284px" height="284px" viewBox="0 0 284 284" version="1.1" xmlns="http://www.w3.org/2000/svg" xmlns:xlink="http://www.w3.org/1999/xlink">
    <!-- Generator: Sketch 51.3 (57544) - http://www.bohemiancoding.com/sketch -->
    <title>NCR_BB_361_2017</title>
    <desc>Created with Sketch.</desc>
    <defs></defs>
    <g id="NCR_BB_361_2017" stroke="none" stroke-width="1" fill="none" fill-rule="evenodd">
        <path d="M166.373,146.374 C166.373,146.374 165.918,144.704 165.918,143.468 L165.918,124.128 L173.667,124.128 L173.667,161.382 L148.866,140.847 C147.539,139.717 146.757,138.457 146.757,138.457 C146.757,138.457 147.147,139.845 147.147,141.048 L147.139,160.541 L139.392,160.541 L139.392,123.432 L163.964,143.558 C165.279,144.674 166.373,146.374 166.373,146.374" id="Fill-4" fill="#FFFFFE"></path>
        <path d="M236.518,124.128 C248.788,124.128 251.934,128.969 251.934,135.927 C251.934,140.973 248.221,145.908 240.733,146.496 L239.914,146.533 C239.914,146.533 240.636,146.663 241.393,147.393 L254.986,160.541 L244.481,160.541 L225.509,141.275 L234.959,141.275 C243.419,141.275 243.662,136.816 243.725,135.687 C243.883,132.8 242.957,130.483 236.501,130.483 L225.701,130.483 L225.701,160.541 L217.646,160.541 L217.646,124.128 L236.518,124.128" id="Fill-5" fill="#FFFFFE"></path>
        <path d="M177.15,142.855 C177.15,127.599 189.921,123.595 200.652,123.595 C204.949,123.595 208.757,123.978 212.756,124.826 L212.77,132.56 C210.466,131.856 205.839,130.303 200.652,130.303 C190.48,130.303 185.539,134.255 185.539,142.855 C185.539,149.899 190.861,154.388 200.652,154.388 C205.839,154.388 211.04,153.153 213.553,152.223 L213.54,159.728 C209.54,160.574 204.949,161.096 200.652,161.096 C189.189,161.096 177.15,155.524 177.15,142.855" id="Fill-6" fill="#FFFFFE"></path>
        <path d="M89.978,125.065 L97.534,132.181 C97.331,132.272 97.093,132.386 96.812,132.527 C96.378,132.752 95.855,133.058 95.229,133.489 C93.986,134.35 92.359,135.713 90.283,137.958 L75.521,153.58 C72.988,156.254 70.415,158.373 68.024,159.492 L60.468,152.376 C60.673,152.282 60.914,152.172 61.187,152.025 C61.624,151.806 62.146,151.497 62.769,151.065 C64.012,150.206 65.641,148.845 67.714,146.602 L82.476,131.001 C85.01,128.33 87.586,126.185 89.978,125.065" id="Fill-7" fill="#FFFFFE"></path>
        <path d="M60.734,162.838 C64.076,162.838 67.143,162.174 69.226,161.095 C70.177,160.598 71.535,159.74 72.706,158.834 C73.872,157.924 75.517,156.511 76.915,155.026 L91.697,139.447 C95.422,135.52 97.664,134.309 99.021,133.832 L106.603,141.011 C105.021,142.704 86.154,162.799 86.154,162.799 C84.864,164.187 83.51,165.526 82.59,166.372 C81.707,167.19 80.191,168.402 79.409,168.976 C74.972,172.229 69.043,174.865 61.061,174.865 C42.978,174.865 28.348,160.143 28.348,143.193 C28.348,122.163 44.778,109.963 59.745,109.963 C64.329,109.828 68.011,110.597 70.918,111.586 C73.609,112.502 75.64,113.607 77.112,114.359 C75.373,115.476 73.688,116.995 70.907,119.965 L67.877,123.22 C67.178,122.953 64.082,121.876 60.104,121.994 C50.506,122.278 40.004,130.064 40.382,142.828 C40.735,154.767 50.577,162.838 60.734,162.838" id="Fill-8" fill="#FFFFFE"></path>
        <path d="M88.681,123.573 C87.726,124.068 86.368,124.924 85.197,125.834 C84.032,126.74 82.386,128.155 80.987,129.638 L66.21,145.219 C62.482,149.145 60.241,150.355 58.883,150.833 L51.3,143.656 C52.885,141.962 71.751,121.868 71.751,121.868 C73.04,120.481 74.394,119.144 75.314,118.292 C76.198,117.476 77.714,116.264 78.498,115.689 C82.93,112.438 88.867,109.801 96.848,109.801 C114.934,109.801 129.556,124.52 129.556,141.469 C129.556,162.502 113.128,174.699 98.16,174.699 C93.576,174.837 89.893,174.065 86.986,173.075 C84.29,172.159 82.253,171.05 80.782,170.298 C82.622,169.059 84.197,167.694 86.998,164.704 L90.028,161.446 C90.726,161.71 93.823,162.79 97.798,162.674 C107.398,162.389 117.902,154.6 117.523,141.834 C117.168,129.899 107.322,121.828 97.166,121.828 C93.823,121.828 90.763,122.49 88.681,123.573" id="Fill-9" fill="#FFFFFE"></path>
    </g>
</svg>